<?xml version="1.0" encoding="iso-8859-1"?>
<!-- Generator: Adobe Illustrator 19.0.0, SVG Export Plug-In . SVG Version: 6.00 Build 0)  -->
<svg version="1.1" id="Layer_1" xmlns="http://www.w3.org/2000/svg" xmlns:xlink="http://www.w3.org/1999/xlink" x="0px" y="0px"
	 viewBox="0 0 512 512" style="enable-background:new 0 0 512 512;" xml:space="preserve">
<path style="fill:#F2CA7F;" d="M481.298,264.817v180.048c0,17.262-13.987,31.261-31.261,31.261H39.967
	c-17.262,0-31.249-13.998-31.249-31.261V198.892c0-17.262,13.987-31.261,31.249-31.261h338.14l27.915,26.289L481.298,264.817z"/>
<polyline style="fill:#898686;" points="356.294,312.033 8.713,312.033 8.713,237.644 394.771,237.644 "/>
<path style="fill:#E0B76E;" d="M481.298,264.817v87.009H378.281c-12.697,0-22.99-10.292-22.99-22.99V216.921
	c0-12.709,10.292-23.001,22.99-23.001h27.741L481.298,264.817z"/>
<path style="fill:#8CC1EA;" d="M480.294,325.627h-124c-12.698,0-22.993-10.295-22.993-22.993V190.712
	c0-12.698,10.295-22.993,22.993-22.993h124c12.698,0,22.993,10.295,22.993,22.993v111.921
	C503.287,315.332,492.993,325.627,480.294,325.627z"/>
<path style="fill:#79B1D6;" d="M368.149,302.634V190.712c0-12.698,10.295-22.993,22.993-22.993h-34.848
	c-12.698,0-22.993,10.295-22.993,22.993v111.921c0,12.698,10.295,22.993,22.993,22.993h34.848
	C378.444,325.627,368.149,315.332,368.149,302.634z"/>
<circle style="fill:#898686;" cx="418.295" cy="236.25" r="23.523"/>
<path d="M481.3,349.508c-4.812,0-8.713,3.901-8.713,8.713v86.066c0,12.431-10.114,22.546-22.546,22.546H39.971
	c-12.432,0-22.546-10.113-22.546-22.546V320.164h284.513c4.812,0,8.713-3.901,8.713-8.713s-3.901-8.713-8.713-8.713H17.425v-56.964
	h102.879c4.812,0,8.713-3.901,8.713-8.713s-3.901-8.713-8.713-8.713H17.425v-30.043c0-12.431,10.114-22.546,22.546-22.546h261.967
	c4.812,0,8.713-3.901,8.713-8.713s-3.901-8.713-8.713-8.713H39.971C17.93,158.338,0,176.268,0,198.307v245.979
	c0,22.039,17.93,39.971,39.971,39.971h410.073c22.04,0,39.971-17.93,39.971-39.971v-86.066
	C490.013,353.409,486.112,349.508,481.3,349.508z"/>
<path d="M301.938,228.35H153.731c-4.812,0-8.713,3.901-8.713,8.713s3.901,8.713,8.713,8.713h148.207
	c4.812,0,8.713-3.901,8.713-8.713S306.75,228.35,301.938,228.35z"/>
<path d="M214.337,357.398c0-4.812-3.901-8.713-8.713-8.713H56.846c-4.812,0-8.713,3.901-8.713,8.713
	c0,4.812,3.901,8.713,8.713,8.713h148.778C210.436,366.111,214.337,362.21,214.337,357.398z"/>
<path d="M56.846,390.256c-4.812,0-8.713,3.901-8.713,8.713s3.901,8.713,8.713,8.713h85.328c4.812,0,8.713-3.901,8.713-8.713
	s-3.901-8.713-8.713-8.713H56.846z"/>
<path d="M503.287,248.548c4.812,0,8.713-3.901,8.713-8.713V190.13c0-15.166-10.706-27.872-24.955-30.975V96.496
	c0-37.911-30.842-68.754-68.754-68.754s-68.754,30.842-68.754,68.754v62.661c-14.246,3.105-24.949,15.809-24.949,30.974v111.922
	c0,17.482,14.224,31.706,31.706,31.706h124c17.482,0,31.706-14.224,31.706-31.706v-33.174c0-4.812-3.901-8.713-8.713-8.713
	c-4.812,0-8.713,3.901-8.713,8.713v33.174c0,7.874-6.407,14.28-14.28,14.28h-124c-7.874,0-14.28-6.407-14.28-14.28V190.13
	c0-7.874,6.407-14.28,14.28-14.28h124c7.874,0,14.28,6.405,14.28,14.28v49.706C494.575,244.648,498.476,248.548,503.287,248.548z
	 M418.29,45.169c28.303,0,51.328,23.026,51.328,51.328v61.929H366.962V96.497C366.962,68.194,389.987,45.169,418.29,45.169z"/>
<path d="M418.294,296.654c4.812,0,8.713-3.901,8.713-8.713v-21.243c13.553-3.811,23.523-16.274,23.523-31.029
	c0-17.775-14.461-32.235-32.235-32.235c-17.775,0-32.235,14.46-32.235,32.235c0,14.756,9.969,27.218,23.523,31.029v21.243
	C409.581,292.754,413.482,296.654,418.294,296.654z M403.484,235.67c0-8.167,6.644-14.81,14.81-14.81
	c8.167,0,14.81,6.644,14.81,14.81s-6.644,14.81-14.81,14.81C410.127,250.48,403.484,243.836,403.484,235.67z"/>
<g>
</g>
<g>
</g>
<g>
</g>
<g>
</g>
<g>
</g>
<g>
</g>
<g>
</g>
<g>
</g>
<g>
</g>
<g>
</g>
<g>
</g>
<g>
</g>
<g>
</g>
<g>
</g>
<g>
</g>
</svg>
