<?xml version="1.0" encoding="iso-8859-1"?>
<!-- Generator: Adobe Illustrator 19.0.0, SVG Export Plug-In . SVG Version: 6.00 Build 0)  -->
<svg version="1.1" id="Layer_1" xmlns="http://www.w3.org/2000/svg" xmlns:xlink="http://www.w3.org/1999/xlink" x="0px" y="0px"
	 viewBox="0 0 460 460" style="enable-background:new 0 0 460 460;" xml:space="preserve">
<g>
	<path style="fill:#C2FBFF;" d="M230,0C102.974,0,0,102.975,0,230c0,104.69,69.945,193.043,165.653,220.878l284.664-287.124
		C421.871,69.021,333.996,0,230,0z"/>
	<path style="fill:#71E2F0;" d="M460,230c0-23.03-3.4-45.263-9.7-66.241l-48.78-48.78L59.146,344.354l106.511,106.511
		C186.076,456.804,207.664,460,230,460C357.025,460,460,357.026,460,230z"/>
	<path style="fill:#366796;" d="M380.333,106.167H230.5l-52.857,124l52.857,123h149.833c16.5,0,30-13.5,30-30v-187
		C410.333,119.667,396.833,106.167,380.333,106.167z"/>
	<path style="fill:#5488A8;" d="M80.333,106.167c-16.5,0-30,13.5-30,30v187c0,16.5,13.5,30,30,30H230.5v-247
		C230.5,106.167,80.333,106.167,80.333,106.167z"/>
	<polygon style="fill:#121149;" points="230.5,196.167 410.333,196.167 410.333,156.167 230.5,156.167 220.5,176.167 	"/>
	<rect x="50.333" y="156.167" style="fill:#273B7A;" width="180.167" height="40"/>
	<rect x="80.833" y="229.667" style="fill:#FFFFFF;" width="67.458" height="50"/>
	<rect x="80.833" y="299.667" style="fill:#FFFFFF;" width="52.458" height="20"/>
	<rect x="163.292" y="299.667" style="fill:#FFFFFF;" width="52.458" height="20"/>
	<path style="fill:#FFC61B;" d="M389.79,247.382v40.42c0,45.18-19.97,71.97-36.72,86.49c-17.96,15.57-35.96,20.5-37.96,21.01
		l-4.96,1.27l-20-90.4l20-86.41L389.79,247.382z"/>
	<path style="fill:#FFFFFF;" d="M310.15,219.762v176.81l-4.97-1.27c-1.99-0.51-20-5.44-37.95-21.01
		c-16.76-14.52-36.73-41.31-36.73-86.49v-40.42L310.15,219.762z"/>
	<path style="fill:#121149;" d="M369.79,261.613v26.19c0,72.844-59.643,88.125-59.643,88.125l-10.476-69.756l10.476-65.244
		L369.79,261.613z"/>
	<path style="fill:#D48B07;" d="M250.504,261.613v26.19c0,72.844,59.643,88.125,59.643,88.125v-135L250.504,261.613z"/>
</g>
<g>
</g>
<g>
</g>
<g>
</g>
<g>
</g>
<g>
</g>
<g>
</g>
<g>
</g>
<g>
</g>
<g>
</g>
<g>
</g>
<g>
</g>
<g>
</g>
<g>
</g>
<g>
</g>
<g>
</g>
</svg>
