<?xml version="1.0" encoding="iso-8859-1"?>
<!-- Generator: Adobe Illustrator 19.0.0, SVG Export Plug-In . SVG Version: 6.00 Build 0)  -->
<svg version="1.1" id="Layer_1" xmlns="http://www.w3.org/2000/svg" xmlns:xlink="http://www.w3.org/1999/xlink" x="0px" y="0px"
	 viewBox="0 0 491.52 491.52" style="enable-background:new 0 0 491.52 491.52;" xml:space="preserve">
<g id="XMLID_711_">
	<g id="XMLID_144_">
		<path style="fill:#F7931E;" d="M450.233,391.319H41.287c-18.561,0-33.607-15.046-33.607-33.607V133.086
			c0-18.56,15.046-33.607,33.607-33.607h408.946c18.56,0,33.607,15.046,33.607,33.607v224.626
			C483.84,376.273,468.794,391.319,450.233,391.319z"/>
	</g>
	<g id="XMLID_335_">
		<path style="fill:#FBB03B;" d="M483.84,176.279H8.132v-39.335c0-21.672,17.569-39.24,39.24-39.24h398.782
			c20.813,0,37.685,16.872,37.685,37.685L483.84,176.279L483.84,176.279z"/>
	</g>
	<g id="XMLID_548_">
		<rect x="15.36" y="105.121" style="fill:#FFFFFF;" width="15.36" height="281.168"/>
	</g>
	<g id="XMLID_370_">
		<rect x="368.64" y="153.239" style="fill:#E9483D;" width="53.76" height="53.76"/>
	</g>
	<g id="XMLID_402_">
		<rect x="368.64" y="153.239" style="fill:#ED6D64;" width="30.72" height="53.76"/>
	</g>
	<g id="XMLID_201_">
		<rect x="61.44" y="253.079" style="fill:#1D1D1B;" width="61.44" height="15.36"/>
	</g>
	<g id="XMLID_202_">
		<rect x="145.92" y="253.079" style="fill:#1D1D1B;" width="69.12" height="15.36"/>
	</g>
	<g id="XMLID_203_">
		<rect x="238.08" y="253.079" style="fill:#1D1D1B;" width="69.12" height="15.36"/>
	</g>
	<g id="XMLID_204_">
		<rect x="330.24" y="253.079" style="fill:#1D1D1B;" width="69.12" height="15.36"/>
	</g>
	<g id="XMLID_205_">
		<rect x="61.44" y="291.479" style="fill:#1D1D1B;" width="245.76" height="15.36"/>
	</g>
	<g id="XMLID_206_">
		<rect x="61.44" y="329.879" style="fill:#1D1D1B;" width="107.52" height="15.36"/>
	</g>
	<g id="XMLID_207_">
		<rect x="61.44" y="214.678" style="fill:#1D1D1B;" width="46.08" height="15.36"/>
	</g>
	<g id="XMLID_208_">
		<rect x="122.88" y="214.678" style="fill:#1D1D1B;" width="46.08" height="15.36"/>
	</g>
	<g id="XMLID_200_">
		<path style="fill:#1D1D1B;" d="M430.08,214.68h-69.12v-69.121h69.12V214.68z M376.32,199.318h38.399v-38.4H376.32V199.318z"/>
	</g>
	<path style="fill:#1D1D1B;" d="M449.987,91.799H41.533C18.632,91.799,0,110.431,0,133.331v224.857
		c0,22.901,18.632,41.533,41.533,41.533h408.454c22.901,0,41.533-18.632,41.533-41.533V133.331
		C491.52,110.431,472.888,91.799,449.987,91.799z M449.987,384.363H41.533c-14.432,0-26.173-11.741-26.173-26.173V183.96h337.92
		V168.6H15.36v-35.267c0-14.432,11.741-26.173,26.173-26.173h408.454c14.432,0,26.173,11.741,26.173,26.173V168.6h-38.4v15.36h38.4
		v174.23C476.16,372.621,464.418,384.363,449.987,384.363z"/>
</g>
<g>
</g>
<g>
</g>
<g>
</g>
<g>
</g>
<g>
</g>
<g>
</g>
<g>
</g>
<g>
</g>
<g>
</g>
<g>
</g>
<g>
</g>
<g>
</g>
<g>
</g>
<g>
</g>
<g>
</g>
</svg>
