<?xml version="1.0" encoding="iso-8859-1"?>
<!-- Generator: Adobe Illustrator 19.0.0, SVG Export Plug-In . SVG Version: 6.00 Build 0)  -->
<svg version="1.1" id="Layer_1" xmlns="http://www.w3.org/2000/svg" xmlns:xlink="http://www.w3.org/1999/xlink" x="0px" y="0px"
	 viewBox="0 0 512 512" style="enable-background:new 0 0 512 512;" xml:space="preserve">
<g>
	<g>
		<path d="M0,247.551v148.947c0,28.752,23.392,52.145,52.145,52.145h407.709c28.752,0,52.145-23.392,52.145-52.145V247.551H0z
			 M94.788,315.482H52.204v-30.417h42.584V315.482z M167.79,315.482h-42.584v-30.417h42.584V315.482z M240.791,315.482h-42.584
			v-30.417h42.584V315.482z M313.792,315.482h-42.584v-30.417h42.584V315.482z M386.794,315.482h-42.584v-30.417h42.584V315.482z
			 M459.795,315.482h-42.584v-30.417h42.584V315.482z"/>
	</g>
</g>
<g>
	<g>
		<path d="M459.855,63.357H52.145C23.392,63.357,0,86.75,0,115.502v25.926h512v-25.926C512,86.75,488.608,63.357,459.855,63.357z"/>
	</g>
</g>
<g>
</g>
<g>
</g>
<g>
</g>
<g>
</g>
<g>
</g>
<g>
</g>
<g>
</g>
<g>
</g>
<g>
</g>
<g>
</g>
<g>
</g>
<g>
</g>
<g>
</g>
<g>
</g>
<g>
</g>
</svg>
